<svg width="1667" height="465" viewBox="0 0 1667 465" fill="none" xmlns="http://www.w3.org/2000/svg">
<path d="M23.1495 142.34C22.77 134.16 20.4705 130.235 16.251 130.566C16.0233 125.657 18.0192 123.038 22.2388 122.707C25.0518 122.487 27.9027 123.084 30.7917 124.5C35.163 127.442 36.0559 131.477 33.4706 136.606C36.2836 136.385 41.9096 135.944 50.3487 135.283C60.2702 136.148 66.6374 136.47 69.4504 136.249C70.8569 136.139 72.9287 135.156 75.6659 133.299C79.8854 132.969 82.6984 132.748 84.1049 132.638C84.5248 111.259 91.7673 100.018 105.832 98.9161C119.898 97.8141 133.183 95.1311 145.69 90.8671L276.496 80.6183C290.409 76.2441 304.36 72.6879 318.349 69.9498C333.821 68.7376 347.886 67.6355 360.545 66.6437C387.268 64.5499 413.327 63.3292 438.72 62.9816C464.189 64.2702 490.285 63.8675 517.009 61.7737C532.48 60.5615 547.211 58.5863 561.2 55.8482C576.671 54.636 592.143 53.4237 607.615 52.2115L658.249 48.2442C676.533 46.8116 693.487 47.1253 709.111 49.1852L890.55 34.9691C890.475 33.333 892.546 32.3497 896.766 32.0191C922.083 30.0354 947.438 28.8698 972.831 28.5223C999.707 29.7006 1026.51 29.2429 1053.23 27.149C1072.92 25.6062 1093.28 23.1902 1114.3 19.9011C1135.32 16.612 1156.38 14.1409 1177.48 12.4878C1181.7 12.1572 1189.43 11.5511 1200.69 10.6695C1212.01 11.424 1223.3 11.3604 1234.56 10.4788C1247.29 11.1231 1259.28 11.0044 1270.54 10.1228C1281.86 10.8772 1289.64 11.0892 1293.86 10.7586L1430.99 0.013833C1431.14 3.28601 1433.33 4.75681 1437.55 4.4262C1456.06 7.90184 1475.2 9.68629 1494.97 9.77955C1516.22 11.3987 1534.88 18.1465 1550.96 30.023C1553.85 31.4387 1558.3 36.0164 1564.3 43.756C1571.79 53.0215 1577.02 59.1802 1579.98 62.232L1603.35 109.662C1604.84 111.188 1607.1 114.294 1610.14 118.982C1614.59 123.56 1616.89 127.485 1617.04 130.757L1629.29 166.743C1634.2 181.137 1636.88 193.242 1637.33 203.059C1642.08 214.181 1647.61 226.884 1653.92 241.168C1661.71 256.978 1665.87 270.609 1666.4 282.062C1666.56 285.334 1666.01 288.661 1664.75 292.043C1663.5 295.426 1662.94 298.753 1663.1 302.025C1661.99 308.68 1660.89 315.334 1659.79 321.989C1660.17 330.169 1658.32 336.061 1654.25 339.664C1643.38 348.726 1628.18 355.664 1608.64 360.479C1593.16 361.692 1572.81 364.108 1547.57 367.727C1522.33 371.347 1508.34 374.085 1505.6 375.942C1504.19 376.052 1499.97 376.383 1492.94 376.934C1485.98 379.121 1481.1 380.324 1478.29 380.545L1336.93 391.62C1335.53 391.73 1332.01 392.006 1326.38 392.447C1320.83 394.524 1316.65 395.672 1313.84 395.893C1311.03 396.113 1306.1 396.499 1299.07 397.05C1293.52 399.127 1287.23 400.441 1280.2 400.992C1273.24 403.179 1266.25 404.548 1259.21 405.099L830.931 438.655C816.79 438.121 802.687 438.405 788.622 439.507C775.963 440.499 763.818 437.346 752.187 430.047C744.127 438.888 735.878 443.64 727.439 444.301L697.902 446.615C671.178 448.709 645.044 448.294 619.499 445.369C594.03 444.081 567.934 444.483 541.21 446.577C521.519 448.12 502.569 450.426 484.36 453.494C466.152 456.563 447.202 458.869 427.511 460.412L395.864 462.891C393.051 463.112 385.981 462.845 374.653 462.09C364.807 462.862 354.22 462.87 342.892 462.116L309.022 462.306L285.815 464.125C281.52 462.819 275.856 462.442 268.823 462.993C261.791 463.544 256.089 462.349 251.717 459.407L184.205 464.697C168.733 465.909 156.512 461.119 147.542 450.328C138.648 441.173 129.05 432.073 118.749 423.027C106.242 427.291 94.9523 427.355 84.879 423.218L97.1961 414.864C95.6378 411.702 96.1893 408.375 98.8505 404.882C101.588 403.026 102.88 400.461 102.729 397.189C102.349 389.009 97.7881 381.977 89.0454 376.094C80.3028 370.21 75.628 360.725 75.0208 347.636C74.7932 342.728 75.3826 340.218 76.7891 340.108C76.7132 338.472 72.9692 333.839 65.5572 326.21L73.8825 323.094C73.6548 318.186 67.0978 313.774 54.2116 309.857C41.3253 305.941 34.5786 297.438 33.9715 284.35C35.378 284.239 37.4498 283.256 40.187 281.4C44.1788 276.161 46.0609 271.087 45.8332 266.179C45.6814 262.907 43.4578 260.618 39.1624 259.312C34.9429 259.643 31.3507 258.282 28.3859 255.231C29.413 246.94 28.9956 237.941 27.1337 228.235C26.7543 220.055 21.5279 213.896 11.4547 209.759C16.929 206.046 19.5522 201.735 19.3246 196.827C15.105 197.158 10.6578 192.58 5.98297 183.094C2.7905 175.134 1.08042 168.7 0.852749 163.792C0.549184 157.247 3.87573 152.882 10.8324 150.695C19.2714 150.033 23.3771 147.249 23.1495 142.34ZM96.1716 392.777C96.3234 396.049 94.9928 397.795 92.1797 398.016C90.7732 398.126 89.9941 396.545 89.8423 393.273C89.6905 390 90.3179 388.309 91.7244 388.199C94.5374 387.979 96.0198 389.504 96.1716 392.777Z" fill="#458AAA"/>
</svg>
